#define dust_bw_width 80
#define dust_bw_height 80
static unsigned char dust_bw_bits[] = {
   0x00, 0x00, 0x00, 0x00, 0x00, 0x00, 0x00, 0xc0, 0x07, 0x00, 0x00, 0x00,
   0x00, 0x00, 0x00, 0x00, 0x00, 0xf0, 0x1f, 0x00, 0x00, 0xf8, 0x36, 0x00,
   0x00, 0x00, 0x00, 0xfc, 0x1f, 0x00, 0x00, 0xfe, 0x7f, 0x00, 0x00, 0x00,
   0x00, 0x3e, 0x7f, 0x00, 0x00, 0x7f, 0xfe, 0x00, 0x00, 0x00, 0x00, 0x0f,
   0x3c, 0x00, 0x80, 0x0f, 0xf0, 0x01, 0x80, 0x7f, 0x00, 0x00, 0xd8, 0x00,
   0x80, 0x07, 0xc0, 0x00, 0xf8, 0xff, 0x1f, 0x80, 0x71, 0x00, 0xc0, 0x03,
   0x00, 0x00, 0xff, 0xdb, 0x7e, 0x80, 0xe3, 0x00, 0xe0, 0xc1, 0x00, 0xc0,
   0x1f, 0x00, 0xf8, 0x01, 0xe2, 0x00, 0xe0, 0x61, 0x00, 0xf0, 0x01, 0x80,
   0xc1, 0x07, 0xe4, 0x00, 0xf0, 0x30, 0x00, 0x78, 0x00, 0x80, 0x1f, 0x1f,
   0xe0, 0x01, 0xf0, 0x18, 0x00, 0x3c, 0x00, 0x03, 0x3f, 0x3e, 0xe0, 0x0f,
   0xf0, 0x18, 0x00, 0x0f, 0x0c, 0x03, 0xd8, 0x38, 0xe0, 0x3f, 0xf0, 0x00,
   0x80, 0x07, 0x0c, 0x60, 0xc0, 0xf1, 0xe0, 0x7f, 0xf8, 0x01, 0xc0, 0x03,
   0x00, 0x20, 0x80, 0x61, 0x01, 0x7e, 0xfc, 0x00, 0xc0, 0x01, 0x00, 0x00,
   0x00, 0xa7, 0x01, 0xf8, 0x7e, 0x00, 0xe0, 0x00, 0x60, 0x0c, 0x00, 0xc2,
   0x01, 0xf0, 0x1e, 0x00, 0xe0, 0x00, 0x30, 0x0c, 0x00, 0x84, 0x03, 0xf0,
   0x0f, 0x0c, 0x78, 0x00, 0x00, 0x00, 0x18, 0x80, 0x03, 0xe0, 0x0f, 0x06,
   0x78, 0x30, 0x00, 0x00, 0x18, 0x00, 0x07, 0xf0, 0x0f, 0x03, 0x38, 0x10,
   0x00, 0x00, 0x00, 0x0c, 0x07, 0x70, 0x0f, 0x01, 0x3c, 0x00, 0x00, 0x00,
   0x00, 0x00, 0x06, 0x30, 0x07, 0x03, 0x1c, 0x00, 0x00, 0x00, 0x00, 0x00,
   0x0e, 0x7c, 0x0e, 0x00, 0x3c, 0x00, 0x04, 0x00, 0x00, 0x60, 0x0e, 0x3c,
   0x3e, 0x00, 0xbe, 0x0d, 0x0c, 0x00, 0x00, 0x00, 0x0e, 0x1e, 0x1e, 0x80,
   0xff, 0x37, 0x04, 0x00, 0x05, 0x00, 0x0e, 0x00, 0x7c, 0xe0, 0xff, 0xff,
   0x00, 0x00, 0x07, 0x00, 0x0e, 0x00, 0x30, 0xf8, 0x01, 0xfe, 0x00, 0x00,
   0x00, 0x00, 0x1e, 0x00, 0x00, 0xfc, 0x00, 0xf8, 0x01, 0x00, 0x00, 0x06,
   0x0a, 0x00, 0x00, 0x3e, 0x00, 0xe0, 0x00, 0x00, 0x00, 0x00, 0x0e, 0x00,
   0x80, 0x0f, 0x00, 0x00, 0x00, 0x00, 0x00, 0x00, 0x0e, 0x00, 0x80, 0x07,
   0x00, 0x00, 0x00, 0x00, 0x00, 0x00, 0x0e, 0x00, 0xc0, 0x03, 0x00, 0x00,
   0x00, 0x00, 0x00, 0x00, 0x07, 0x00, 0xe0, 0x01, 0x00, 0x00, 0x00, 0x00,
   0x00, 0x00, 0x1f, 0x00, 0xf0, 0x20, 0x00, 0x00, 0x00, 0x00, 0x00, 0x80,
   0x7f, 0x00, 0xf0, 0x00, 0x00, 0x00, 0x00, 0x00, 0x00, 0xc0, 0xf6, 0x00,
   0x78, 0x00, 0x00, 0x00, 0x00, 0x00, 0x00, 0xc0, 0xc3, 0x00, 0x38, 0x00,
   0x0c, 0x00, 0x00, 0x00, 0x00, 0xa0, 0x81, 0x03, 0x38, 0x00, 0x0c, 0x00,
   0x00, 0x00, 0x00, 0xf0, 0x00, 0x03, 0x38, 0x00, 0x00, 0x00, 0x00, 0x40,
   0x00, 0x78, 0x00, 0x07, 0x3c, 0x00, 0x01, 0x00, 0x00, 0x40, 0x00, 0x7c,
   0x0c, 0x07, 0x3c, 0x80, 0x01, 0x00, 0x00, 0x00, 0x00, 0x18, 0x1c, 0x07,
   0x3c, 0x80, 0x00, 0x00, 0x00, 0x00, 0x00, 0x00, 0x38, 0x07, 0x3c, 0x00,
   0x00, 0x00, 0x00, 0x00, 0x00, 0x00, 0x30, 0x07, 0x3c, 0x00, 0x00, 0x00,
   0x00, 0x00, 0x00, 0x00, 0x30, 0x0e, 0x38, 0x00, 0x40, 0x00, 0x00, 0xc0,
   0x00, 0x00, 0x30, 0x0e, 0x38, 0x00, 0x80, 0x00, 0x00, 0x40, 0x00, 0x00,
   0x30, 0x06, 0x58, 0x00, 0x03, 0x00, 0x00, 0x00, 0x00, 0x00, 0x20, 0x0e,
   0x78, 0x04, 0x01, 0x00, 0x00, 0x00, 0x00, 0x00, 0x30, 0x0e, 0x70, 0x1c,
   0x03, 0x00, 0x00, 0x00, 0x00, 0x00, 0x38, 0x0e, 0xf0, 0x38, 0x00, 0x00,
   0x00, 0x00, 0x00, 0x00, 0x18, 0x07, 0xe0, 0xe0, 0x20, 0x00, 0x00, 0x00,
   0x00, 0x10, 0x00, 0x07, 0xe0, 0xc1, 0x3e, 0x00, 0x00, 0x00, 0x80, 0x38,
   0x80, 0x07, 0xc0, 0x03, 0x3f, 0x00, 0x06, 0x00, 0x80, 0x00, 0x80, 0x03,
   0x80, 0x07, 0x00, 0x80, 0x07, 0x00, 0x00, 0xc0, 0xc0, 0x01, 0x80, 0x0f,
   0x00, 0xe0, 0x03, 0x00, 0x00, 0x40, 0xf0, 0x00, 0x00, 0x3f, 0x00, 0xfc,
   0x00, 0x00, 0x00, 0x0c, 0x78, 0x00, 0x06, 0xbc, 0xcd, 0x7f, 0x00, 0x00,
   0x00, 0x0c, 0x3e, 0x00, 0x06, 0xf8, 0xff, 0x0f, 0x00, 0x00, 0x18, 0x00,
   0x1f, 0x00, 0x07, 0x60, 0xff, 0x00, 0x41, 0x00, 0xfc, 0xb6, 0x0f, 0x00,
   0x0f, 0x00, 0x0f, 0xc0, 0x01, 0x00, 0xfc, 0xff, 0x07, 0x00, 0x0e, 0x00,
   0x0e, 0x00, 0x00, 0x00, 0xfc, 0x7e, 0x00, 0x3c, 0x3e, 0x00, 0x1e, 0x0e,
   0x00, 0x00, 0x00, 0x00, 0x00, 0x3c, 0x3c, 0x00, 0x0c, 0x3c, 0x6c, 0x00,
   0x00, 0x00, 0x00, 0x38, 0x3c, 0x00, 0x3c, 0xf0, 0x3e, 0x00, 0x80, 0x61,
   0x00, 0x38, 0x1c, 0x00, 0x38, 0xc0, 0x1b, 0x00, 0x80, 0x20, 0x60, 0x38,
   0x1c, 0x00, 0xf8, 0x00, 0x00, 0xf0, 0x00, 0x00, 0x30, 0x1c, 0x1c, 0x00,
   0xe0, 0x0b, 0x00, 0xf8, 0x00, 0x00, 0x1c, 0x1c, 0x1c, 0x01, 0xc0, 0x6f,
   0x83, 0x7e, 0x00, 0x06, 0x04, 0x1e, 0x1c, 0x01, 0x00, 0xbf, 0xef, 0x1f,
   0x00, 0x06, 0x00, 0x0f, 0x0c, 0x01, 0x00, 0xf4, 0xff, 0x07, 0x00, 0x42,
   0x80, 0x07, 0x1c, 0x03, 0x00, 0x00, 0x5b, 0x00, 0x70, 0x70, 0xc0, 0x03,
   0x1c, 0x3f, 0x00, 0x00, 0x00, 0x80, 0x20, 0xf8, 0xfe, 0x01, 0x6c, 0x18,
   0x00, 0x00, 0x00, 0xc0, 0x02, 0xfc, 0x7f, 0x00, 0x78, 0x00, 0x06, 0x00,
   0x00, 0xc0, 0x83, 0x1f, 0x07, 0x00, 0xf8, 0x60, 0x07, 0x00, 0x00, 0x80,
   0xef, 0x0f, 0x00, 0x00, 0xf0, 0xff, 0x03, 0x00, 0x00, 0x00, 0xff, 0x03,
   0x00, 0x00, 0x80, 0xff, 0x00, 0x00, 0x00, 0x00, 0x10, 0x00, 0x00, 0x00,
   0x00, 0x1f, 0x00, 0x00, 0x00, 0x00, 0x00, 0x00, 0x00, 0x00, 0x00, 0x00,
   0x00, 0x00, 0x00, 0x00, 0x00, 0x00, 0x00, 0x00 };
